<svg xmlns="http://www.w3.org/2000/svg" viewBox="0 0 285.33 285.33"><defs><style>.cls-1{fill:#3f57be;}.cls-2,.cls-3,.cls-4{fill:none;}.cls-2,.cls-3,.cls-4,.cls-5{stroke:#fff;stroke-miterlimit:10;}.cls-2{stroke-linecap:round;}.cls-2,.cls-3{stroke-width:9px;}.cls-4,.cls-5{stroke-width:5px;}.cls-5{fill:#fff;}</style></defs><title>dl_explanation_icon</title><g id="Layer_3" data-name="Layer 3"><rect class="cls-1" width="285.33" height="285.33" rx="68.25" ry="68.25"/></g><g id="Layer_2" data-name="Layer 2"><line class="cls-2" x1="27" y1="71.78" x2="154.67" y2="71.78"/><line class="cls-2" x1="27" y1="214.28" x2="154.67" y2="214.28"/><line class="cls-3" x1="154.67" y1="71.78" x2="200.24" y2="126.16"/><line class="cls-3" x1="154.67" y1="214.08" x2="200.24" y2="159.71"/><line class="cls-2" x1="200.24" y1="126.16" x2="223" y2="126.16"/><line class="cls-2" x1="200.23" y1="160.02" x2="223" y2="159.74"/><line class="cls-2" x1="223" y1="103.29" x2="268.85" y2="139.8"/><line class="cls-2" x1="223" y1="178.12" x2="268.85" y2="141.97"/><line class="cls-2" x1="223" y1="126.16" x2="223" y2="103.29"/><line class="cls-2" x1="223" y1="159.74" x2="223" y2="176.84"/></g><g id="Layer_1" data-name="Layer 1"><circle class="cls-4" cx="56.81" cy="113.79" r="21.09"/><circle class="cls-4" cx="136.37" cy="113.79" r="21.09"/><circle class="cls-4" cx="56.81" cy="171.54" r="21.09"/><circle class="cls-4" cx="136.37" cy="171.54" r="21.09"/><line class="cls-4" x1="77.9" y1="113.79" x2="115.28" y2="113.79"/><line class="cls-4" x1="77.9" y1="113.79" x2="115.37" y2="173.49"/><line class="cls-4" x1="77.9" y1="171.54" x2="115.28" y2="113.79"/><line class="cls-4" x1="115.28" y1="171.54" x2="77.9" y2="171.54"/><circle class="cls-5" cx="56.81" cy="113.79" r="10.5"/><circle class="cls-5" cx="136.37" cy="113.79" r="10.5"/><circle class="cls-5" cx="56.81" cy="171.54" r="10.5"/><circle class="cls-5" cx="136.37" cy="171.54" r="10.5"/></g></svg>