<svg id="Layer_1" data-name="Layer 1" xmlns="http://www.w3.org/2000/svg" viewBox="0 0 194.32 194.32"><defs><style>.cls-1{fill:#fff;}.cls-2{fill:#4870d9;}.cls-3{fill:#310d75;}.cls-4{fill:none;stroke:#310d75;stroke-linecap:round;stroke-miterlimit:10;stroke-width:2px;}</style></defs><title>intuitive-icon</title><rect class="cls-1" width="194.32" height="194.32"/><path class="cls-2" d="M305.75,151.88C328,151.88,346,173.46,346,200c0,13-4.32,25.26-12.16,34.39-7.58,8.84-17.57,13.71-28.13,13.71s-20.54-4.87-28.13-13.7c-7.84-9.14-12.16-21.36-12.16-34.4C265.46,173.46,283.54,151.88,305.75,151.88Z" transform="translate(-208.59 -102.82)"/><path class="cls-3" d="M231.67,280.11c1.46-17.77,18-33.64,43.17-41.15.4.43.82.81,1.23,1.22s1,1,1.52,1.51,1.28,1.13,1.93,1.68,1.06.89,1.6,1.3,1.38,1,2.08,1.46,1.09.75,1.65,1.1c.73.44,1.48.83,2.23,1.23.56.29,1.11.61,1.69.89.78.37,1.58.67,2.37,1,.57.22,1.12.48,1.7.68.84.29,1.71.51,2.56.74.55.15,1.09.33,1.64.46,1,.22,1.94.36,2.91.5.47.07.93.18,1.4.24a38.84,38.84,0,0,0,8.8,0c.49-.06,1-.17,1.44-.24,1-.15,1.93-.28,2.88-.5.57-.13,1.12-.31,1.68-.47.84-.23,1.69-.45,2.52-.73.59-.21,1.16-.47,1.74-.7.78-.31,1.56-.61,2.33-1,.58-.28,1.15-.6,1.72-.91.74-.39,1.47-.77,2.19-1.21s1.12-.74,1.68-1.12,1.38-.92,2.06-1.44,1.07-.87,1.6-1.31,1.3-1.09,1.93-1.67,1-1,1.51-1.5.84-.8,1.24-1.23c25.14,7.52,41.71,23.38,43.16,41.16H231.67Z" transform="translate(-208.59 -102.82)"/><path class="cls-4" d="M258.52,187c2.46-19,12.77-32.26,30.15-40.27" transform="translate(-208.59 -102.82)"/><path class="cls-4" d="M247.4,186.14c3.06-23.61,15.83-40,37.39-49.94" transform="translate(-208.59 -102.82)"/><path class="cls-4" d="M237.54,185c3.55-27.44,18.4-46.5,43.45-58" transform="translate(-208.59 -102.82)"/><path class="cls-4" d="M352.58,186c-2.46-19-12.76-32.26-30.14-40.27" transform="translate(-208.59 -102.82)"/><path class="cls-4" d="M363.7,185.18c-3.05-23.61-15.83-40-37.38-49.94" transform="translate(-208.59 -102.82)"/><path class="cls-4" d="M373.56,184.08c-3.55-27.44-18.39-46.5-43.44-58" transform="translate(-208.59 -102.82)"/></svg>