<svg id="Layer_1" data-name="Layer 1" xmlns="http://www.w3.org/2000/svg" viewBox="0 0 640 641.01"><defs><style>.cls-1,.cls-3{fill:#fff;}.cls-2,.cls-4{fill:none;}.cls-2,.cls-3{stroke:#310d75;}.cls-2,.cls-3,.cls-4{stroke-miterlimit:10;stroke-width:8px;}.cls-4{stroke:#4870d9;stroke-linecap:round;}.cls-5{fill:#4870d9;}</style></defs><title>intuitive-icon</title><rect class="cls-1" width="640" height="637.01"/><ellipse class="cls-2" cx="320" cy="507.01" rx="148.02" ry="130.01"/><circle class="cls-3" cx="320" cy="309.76" r="87.32"/><rect class="cls-1" y="496.14" width="640" height="143.86"/><line class="cls-4" x1="63.76" y1="496.14" x2="576.24" y2="496.13"/><path class="cls-5" d="M320.12,61.2A42.19,42.19,0,0,0,292.24,135c6.67,6.67,6.06,20.92,5.91,21.07a2.5,2.5,0,0,0,.76,2,2.81,2.81,0,0,0,1.82.76h38.64a2.54,2.54,0,0,0,1.82-.76,2.91,2.91,0,0,0,.76-2c0-.15-.76-14.4,5.91-21.07l.45-.45A42.07,42.07,0,0,0,320.12,61.2Zm24.25,69.86c-.15.16-.45.46-.45.61-5.91,6.37-7,16.82-7.13,21.82H303.3c-.15-5-1.21-15.91-7.57-22.43a36.9,36.9,0,1,1,48.64,0Z"/><path class="cls-5" d="M320,72a2.58,2.58,0,0,0,0,5.16,27.58,27.58,0,0,1,27.58,27.58,2.58,2.58,0,0,0,5.16,0A32.6,32.6,0,0,0,320,72Z"/><path class="cls-5" d="M336.79,161.68H303.15a6.36,6.36,0,1,0,0,12.72h33.49a6.53,6.53,0,0,0,6.52-6.36A6.4,6.4,0,0,0,336.79,161.68Zm0,7.42H303.15a1.19,1.19,0,0,1-1.21-1.21,1.11,1.11,0,0,1,1.21-1.21h33.49a1.19,1.19,0,0,1,1.21,1.21A1.08,1.08,0,0,1,336.79,169.1Z"/><path class="cls-5" d="M331.79,177H308.15a6.37,6.37,0,0,0,0,12.73h23.64a6.4,6.4,0,0,0,6.37-6.36A6.31,6.31,0,0,0,331.79,177Zm0,7.43H308.15a1.2,1.2,0,0,1-1.21-1.22,1.12,1.12,0,0,1,1.21-1.21h23.64a1.22,1.22,0,1,1,0,2.43Z"/><path class="cls-5" d="M320,48.63a2.56,2.56,0,0,0,2.58-2.58V28.47a2.58,2.58,0,0,0-5.15,0V46.05A2.66,2.66,0,0,0,320,48.63Z"/><path class="cls-5" d="M362.86,38.93a2.45,2.45,0,0,0-3.49.6l-9.7,14.55a2.51,2.51,0,0,0,.61,3.64,2.47,2.47,0,0,0,1.36.45A2.43,2.43,0,0,0,353.77,57l9.7-14.55A2.35,2.35,0,0,0,362.86,38.93Z"/><path class="cls-5" d="M289.21,57.57a2.37,2.37,0,0,0,1.36-.46,2.64,2.64,0,0,0,.76-3.63l-9.39-14.7a2.63,2.63,0,1,0-4.4,2.88l9.4,14.69A2.51,2.51,0,0,0,289.21,57.57Z"/><path class="cls-5" d="M270.87,73.63l-15.3-8.33a2.66,2.66,0,0,0-3.49,1.06,2.42,2.42,0,0,0,1.06,3.48l15.31,8.34a3.58,3.58,0,0,0,1.21.3,2.48,2.48,0,0,0,2.27-1.36A2.66,2.66,0,0,0,270.87,73.63Z"/><path class="cls-5" d="M388,66.36a2.65,2.65,0,0,0-3.48-1.06l-15.46,8.33A2.68,2.68,0,0,0,368,77.12a2.51,2.51,0,0,0,2.27,1.36,2.92,2.92,0,0,0,1.22-.3L387,69.84A2.65,2.65,0,0,0,388,66.36Z"/></svg>