<?xml version="1.0" encoding="utf-8"?>
<!-- Generator: Adobe Illustrator 22.0.1, SVG Export Plug-In . SVG Version: 6.00 Build 0)  -->
<svg version="1.1" id="Layer_1" xmlns="http://www.w3.org/2000/svg" xmlns:xlink="http://www.w3.org/1999/xlink" x="0px" y="0px"
	 viewBox="0 0 512 512" style="enable-background:new 0 0 512 512;" xml:space="preserve">
<style type="text/css">
	.st0{fill:#4870D9;}
</style>
<path class="st0" d="M474.4,122.4l24.8-24.8c4.1-4.1,5.5-10.3,3.5-15.8c-2-5.5-7-9.3-12.8-9.8l-46.1-3.9l-3.9-46.1
	c-0.5-5.8-4.3-10.8-9.8-12.8c-5.5-2-11.6-0.6-15.8,3.5l-24.8,24.8C349.4,13,303.5,0,256,0C187.6,0,123.3,26.6,75,75S0,187.6,0,256
	s26.6,132.7,75,181s112.6,75,181,75s132.7-26.6,181-75s75-112.6,75-181C512,208.5,499,162.6,474.4,122.4z M415,83.3
	c0.6,7.3,6.4,13.1,13.7,13.7l26.5,2.2l-35.9,35.9l-39.1-3.3l-3.3-39.1l35.9-35.9L415,83.3z M307,256c0,28.1-22.9,51-51,51
	s-51-22.9-51-51s22.9-51,51-51c8.6,0,16.7,2.2,23.8,5.9l-34.5,34.5c-5.9,5.9-5.9,15.4,0,21.2c2.9,2.9,6.8,4.4,10.6,4.4
	s7.7-1.5,10.6-4.4l34.5-34.5C304.8,239.3,307,247.4,307,256z M301.7,189.1c-13-8.9-28.7-14.1-45.7-14.1c-44.7,0-81,36.3-81,81
	s36.3,81,81,81s81-36.3,81-81c0-16.9-5.2-32.6-14.1-45.7l42.8-42.8c19.6,24.2,31.3,55,31.3,88.5c0,77.7-63.3,141-141,141
	s-141-63.3-141-141s63.3-141,141-141c33.5,0,64.3,11.7,88.5,31.3L301.7,189.1z M415.8,415.8C373.1,458.5,316.4,482,256,482
	s-117.1-23.5-159.8-66.2C53.5,373.1,30,316.4,30,256S53.5,138.9,96.2,96.2C138.9,53.5,195.6,30,256,30c39.5,0,77.7,10.1,111.7,29.5
	l-16.9,16.9c-2.7,2.7-4.3,6.4-4.4,10.2c0,0.5,0,1.1,0,1.6l2,23.9C321.8,95,290,85,256,85c-94.3,0-171,76.7-171,171s76.7,171,171,171
	s171-76.7,171-171c0-34-10-65.8-27.2-92.4l23.9,2c0.4,0,0.8,0.1,1.3,0.1c0.1,0,0.1,0,0.2,0c0.2,0,0.4,0,0.6,0c0.3,0,0.7,0,1-0.1
	c0.2,0,0.4-0.1,0.6-0.1c0.3-0.1,0.6-0.1,0.9-0.2c0.2,0,0.4-0.1,0.6-0.1c0.3-0.1,0.6-0.2,0.9-0.3c0.2-0.1,0.4-0.1,0.6-0.2
	c0.3-0.1,0.6-0.2,0.9-0.4c0.2-0.1,0.4-0.2,0.6-0.3c0.3-0.1,0.6-0.3,0.8-0.5c0.2-0.1,0.3-0.2,0.5-0.3c0.3-0.2,0.6-0.4,0.9-0.6
	c0.1-0.1,0.3-0.2,0.4-0.3c0.4-0.3,0.8-0.7,1.2-1.1l16.9-16.9C471.9,178.3,482,216.5,482,256C482,316.4,458.5,373.1,415.8,415.8z"/>
</svg>
