<?xml version="1.0" encoding="utf-8"?>
<!-- Generator: Adobe Illustrator 22.0.1, SVG Export Plug-In . SVG Version: 6.00 Build 0)  -->
<svg version="1.1" xmlns="http://www.w3.org/2000/svg" xmlns:xlink="http://www.w3.org/1999/xlink" x="0px" y="0px"
	 viewBox="0 0 795.6 450.9" style="enable-background:new 0 0 795.6 450.9;" xml:space="preserve">
<style type="text/css">
	.st0{fill:#3F3D56;}
	.st1{fill:#6C63FF;}
	.st2{fill:#2F2E41;}
	.st3{fill:#A0616A;}
	.st4{fill:#D0CDE1;}
	.st5{fill:#575A89;}
	.st6{fill:#7FD0FF;}
	.st7{fill:#FF8888;}
	.st8{fill:#B6E565;}
	.st9{font-family:'MicrosoftSansSerif';}
	.st10{font-size:12.6159px;}
	.st11{fill:#FFFFFF;}
	.st12{fill:#B5D0FF;stroke:#7FD0FF;stroke-width:3;stroke-linecap:round;stroke-miterlimit:10;}
	.st13{fill:none;stroke:#FF8888;stroke-width:3;stroke-linecap:round;stroke-miterlimit:10;}
	.st14{fill:none;stroke:#B6E565;stroke-width:3;stroke-linecap:round;stroke-miterlimit:10;}
	.st15{fill:#4BD0FF;}
	.st16{font-size:6.7039px;}
	.st17{fill:#91E52C;}
	.st18{fill:#81B3B3;}
	.st19{fill:none;stroke:#81B3B3;stroke-width:3;stroke-miterlimit:10;}
	.st20{font-size:9.7091px;}
	.st21{fill:#808080;stroke:#808080;stroke-width:3;stroke-miterlimit:10;}
	.st22{font-size:18.1794px;}
	.st23{fill:none;stroke:#000000;stroke-miterlimit:10;}
	.st24{font-size:13.4537px;}
	.st25{display:none;fill:none;stroke:#2A84FF;stroke-width:3;stroke-miterlimit:10;}
</style>
<g id="b6942215-14b2-40f7-8c48-1a1432d81c3d">
	<title>observations</title>
	<path class="st0" d="M83.5,414.3l-1.3-0.5c-0.3-0.1-28-10.7-41-34.8c-13-24.1-6.6-53.1-6.6-53.4l0.3-1.3l1.3,0.5
		c0.3,0.1,28,10.7,41,34.8c13,24.1,6.6,53.1,6.6,53.4L83.5,414.3z M43.3,378c11,20.4,32.9,30.8,38.4,33.2c1.1-5.9,4.4-30-6.6-50.3
		c-11-20.3-32.9-30.8-38.4-33.2C35.7,333.6,32.4,357.6,43.3,378z"/>
	<path class="st1" d="M52.2,372.6c23.3,14,32.3,41.9,32.3,41.9s-28.8,5.1-52.2-8.9S0,363.7,0,363.7S28.8,358.6,52.2,372.6z"/>
	<path class="st0" d="M193.4,381.3c0,37-27.5,35-61.5,35s-61.5,2-61.5-35s27.5-99,61.5-99S193.4,344.3,193.4,381.3z"/>
	<rect x="30.4" y="415.3" class="st0" width="712" height="2"/>
	<path class="st2" d="M338,75.7c0-0.1-0.1-0.2-0.1-0.3c0,0,0,0.1,0,0.1L338,75.7z"/>
	<polygon class="st3" points="224.2,322.1 203.2,342.1 186.2,324.1 212.2,311.1 	"/>
	<path class="st2" d="M197.2,326.1c0,0,25.4-1.7,22.5,5.8s3.3,34.7,3.3,34.7s9.5,49-20.4,29.5S179.2,363,179.2,363
		s-8.7-13.2-6.9-17.8s16.6-22.5,19.5-20.2C193.2,326.3,195.3,326.7,197.2,326.1z"/>
	<path class="st2" d="M188.2,243.1c0,0,112-9,121,14s-9,40-9,40l-73,36L204,312.3l13.3-12.2c0,0-75,14-77,3S148.2,234.1,188.2,243.1
		z"/>
	<path class="st3" d="M318.2,263.1c0,0,20,56,0,53s-18-48-18-48L318.2,263.1z"/>
	<path class="st4" d="M273.7,148.6c0,0,12.5,6.5,10.5,14.5s8,58,8,58l30,44l-25,9c0,0-32-21-37-36s-12-38-12-38L273.7,148.6z"/>
	<circle class="st3" cx="267.2" cy="92.1" r="33"/>
	<path class="st3" d="M269.7,115.6c0,0-4,33-2,46s-40-47-40-47s18-13,18-18S269.7,115.6,269.7,115.6z"/>
	<path class="st2" d="M307.2,79.4c-3.2-0.4-6.4-0.4-9.6,0.1c-3.2,0.4-6.2,2.1-8.2,4.6c-2.3,3.1-3,7.7-6.6,9c-2.1,0.8-4.6,0-6.7,0.8
		c-2.6,0.9-3.9,3.8-4.5,6.4s-1.1,5.5-2.8,7.6s-5.5,2.8-7,0.6c0.3-2.4,0.2-4.9-0.4-7.2c-0.6-2.4-2.3-4.4-4.6-5.2
		c-3.9-1.1-7.6,2.3-10.2,5.4s-6.2,6.6-10.2,5.6c-4.2-1-5.6-6.2-6.1-10.4c-1-9.7-0.9-20.1,3.8-28.6c6.8-12.4,22.3-18.4,36.4-16.5
		s26.4,10.7,35.4,21.6c1.5,1.8,2.9,3.7,3.2,6"/>
	<path class="st5" d="M264.7,154.6l-11-11l-19-38l-51,16c0,0-18,5-29,37c0,0-66,85-55,99c11,14,13,13,31,2c11.3-6.8,23.4-12.2,36-16
		l48,5l29-36c0,0,43-28,36-60l-12-16L264.7,154.6z"/>
	<path class="st3" d="M257.2,255.1l6,4c0,0,33,41,17,49s-32-40-32-40L257.2,255.1z"/>
	<path class="st4" d="M211.9,122.8c2.4,0.2,4.6,1.4,6.1,3.3c4,5,9.9,16.9,1.2,37.1c-7,16.2-12.7,32.9-17,50c0,0,5-1,5,3s-4,2,0,4
		s3-1,4,2c1,3.1-0.1,3,2.3,4.1c2.4,1.3,4.5,3.1,6.1,5.3c0.4,0.6,1,1.1,1.6,1.5l37,19c0,0,5,20-10,20c0,0-92-26-90-46
		C160.2,206.6,164.1,119.2,211.9,122.8z"/>
	<polygon class="st3" points="192.2,375.1 192.2,401.1 164.2,399.1 170.2,373.1 	"/>
	<path class="st2" d="M172.2,387.1c0,0,23-11,23-3s16,31,16,31s27,42-8,35s-34-22-34-22s-13-9-13-14s7.1-27,10.5-26
		C168.6,388.8,170.7,388.4,172.2,387.1z"/>
	<path class="st2" d="M144.2,245.1c0,0,71-16,68,10s-6,41-6,41l-12,85l-28-3l-2-16c0,0-6-6-3-10s-5-43-5-43s-48,10-52-19s6-38,6-38
		L144.2,245.1z"/>
</g>
<g id="Layer_2">
	<circle class="st6" cx="404.3" cy="80" r="13.5"/>
	<circle class="st7" cx="404.3" cy="124.5" r="13.5"/>
	<circle class="st8" cx="404.3" cy="169.1" r="13.5"/>
	<text transform="matrix(1 0 0 1 370.938 128.9639)" class="st7 st9 st10">X2</text>
	<text transform="matrix(1 0 0 1 370.938 84.248)" class="st6 st9 st10">X1</text>
	<text transform="matrix(1 0 0 1 370.938 173.5762)" class="st8 st9 st10">X3</text>
	<text transform="matrix(1 0 0 1 395.4263 84.248)" class="st11 st9 st10">0.8</text>
	<text transform="matrix(1 0 0 1 395.52 128.9639)" class="st11 st9 st10">0.1</text>
	<text transform="matrix(1 0 0 1 395.52 173.5762)" class="st11 st9 st10">0.3</text>
	<line class="st12" x1="417.8" y1="80" x2="454.7" y2="124.5"/>
	<line class="st13" x1="417.8" y1="124.5" x2="454.7" y2="124.5"/>
	<line class="st14" x1="417.8" y1="169.1" x2="454.7" y2="124.5"/>
	<text transform="matrix(1 0 0 1 435.5605 100.1826)" class="st15 st9 st16">W1=0.3</text>
	<text transform="matrix(1 0 0 1 421.7773 122.7539)" class="st7 st9 st16">W2=0.5</text>
	<text transform="matrix(1 0 0 1 434.4424 155.5713)" class="st17 st9 st16">W3=0.6</text>
	<circle class="st18" cx="475.4" cy="73.5" r="10.8"/>
	<line class="st19" x1="475.4" y1="84.2" x2="475.4" y2="103.9"/>
	<text transform="matrix(1 0 0 1 471.4492 60.9482)" class="st18 st9 st10">B</text>
	<text transform="matrix(1 0 0 1 468.7412 76.9648)" class="st11 st9 st20">0.1</text>
	<circle class="st21" cx="475.4" cy="124.5" r="20.7"/>
	<text transform="matrix(1 0 0 1 469.1143 130.8516)" class="st11 st9 st22">H</text>
	<g>
		<g>
			<line class="st23" x1="513.8" y1="124.5" x2="496.1" y2="124.5"/>
			<g>
				<path d="M519.8,124.5c-2.8-1.1-6.4-2.9-8.5-4.8l1.7,4.8l-1.7,4.8C513.5,127.4,517,125.6,519.8,124.5z"/>
			</g>
		</g>
	</g>
	<text transform="matrix(1 0 0 1 521.5869 128.9639)" class="st9 st24">Y = f(H)</text>
	<path class="st25" d="M568.4,244.4H419.9c-6.6,0-12-5.4-12-12v-16.7c0-6.6,5.4-12,12-12h148.5c6.6,0,12,5.4,12,12v16.7
		C580.4,239,575,244.4,568.4,244.4z"/>
</g>
<g id="Layer_3">
	
		<image style="overflow:visible;" width="601" height="431" xlink:href="../../Understanding Optimizers/momentum_visual.png"  transform="matrix(0.3457 0 0 0.3457 347.2507 244.6772)">
	</image>
	
		<image style="overflow:visible;" width="593" height="404" xlink:href="C7CD16C3.png"  transform="matrix(0.3377 0 0 0.3377 565.1169 172.0573)">
	</image>
</g>
</svg>
